<mxfile host="Electron" modified="2024-05-09T09:55:27.430Z" agent="Mozilla/5.0 (Windows NT 10.0; Win64; x64) AppleWebKit/537.36 (KHTML, like Gecko) draw.io/24.2.5 Chrome/120.0.6099.109 Electron/28.1.0 Safari/537.36" etag="dX6w0K3Vla4j-uBcGUPp" version="24.2.5" type="device">
  <diagram name="Page-1" id="5ynJy42BxBXal5pXmUsA">
    <mxGraphModel dx="1179" dy="683" grid="1" gridSize="10" guides="1" tooltips="1" connect="1" arrows="1" fold="1" page="1" pageScale="1" pageWidth="827" pageHeight="1169" math="0" shadow="0">
      <root>
        <mxCell id="0" />
        <mxCell id="1" parent="0" />
        <mxCell id="nx2Eyv0rDoXRoa020SPR-4" value="" style="rounded=0;html=1;jettySize=auto;orthogonalLoop=1;fontSize=11;endArrow=block;endFill=0;endSize=8;strokeWidth=1;shadow=0;labelBackgroundColor=none;edgeStyle=orthogonalEdgeStyle;" edge="1" parent="1" source="nx2Eyv0rDoXRoa020SPR-5" target="nx2Eyv0rDoXRoa020SPR-8">
          <mxGeometry relative="1" as="geometry" />
        </mxCell>
        <mxCell id="nx2Eyv0rDoXRoa020SPR-5" value="Start" style="rounded=1;whiteSpace=wrap;html=1;fontSize=12;glass=0;strokeWidth=1;shadow=0;" vertex="1" parent="1">
          <mxGeometry x="280" y="110" width="120" height="40" as="geometry" />
        </mxCell>
        <mxCell id="nx2Eyv0rDoXRoa020SPR-6" value="false" style="rounded=0;html=1;jettySize=auto;orthogonalLoop=1;fontSize=11;endArrow=block;endFill=0;endSize=8;strokeWidth=1;shadow=0;labelBackgroundColor=none;edgeStyle=orthogonalEdgeStyle;entryX=0.487;entryY=-0.007;entryDx=0;entryDy=0;entryPerimeter=0;" edge="1" parent="1" source="nx2Eyv0rDoXRoa020SPR-8" target="nx2Eyv0rDoXRoa020SPR-12">
          <mxGeometry x="0.1963" y="7" relative="1" as="geometry">
            <mxPoint as="offset" />
            <mxPoint x="340" y="320" as="targetPoint" />
            <Array as="points">
              <mxPoint x="330" y="353" />
              <mxPoint x="327" y="353" />
            </Array>
          </mxGeometry>
        </mxCell>
        <mxCell id="nx2Eyv0rDoXRoa020SPR-7" value="true" style="edgeStyle=orthogonalEdgeStyle;rounded=0;html=1;jettySize=auto;orthogonalLoop=1;fontSize=11;endArrow=block;endFill=0;endSize=8;strokeWidth=1;shadow=0;labelBackgroundColor=none;entryX=0.5;entryY=0;entryDx=0;entryDy=0;" edge="1" parent="1" source="nx2Eyv0rDoXRoa020SPR-8" target="nx2Eyv0rDoXRoa020SPR-18">
          <mxGeometry y="10" relative="1" as="geometry">
            <mxPoint as="offset" />
            <mxPoint x="530" y="240" as="targetPoint" />
          </mxGeometry>
        </mxCell>
        <mxCell id="nx2Eyv0rDoXRoa020SPR-8" value="method2(n1, n2) == VALUE1" style="rhombus;whiteSpace=wrap;html=1;shadow=0;fontFamily=Helvetica;fontSize=12;align=center;strokeWidth=1;spacing=6;spacingTop=-4;" vertex="1" parent="1">
          <mxGeometry x="235" y="205" width="210" height="70" as="geometry" />
        </mxCell>
        <mxCell id="nx2Eyv0rDoXRoa020SPR-10" value="true" style="rounded=0;html=1;jettySize=auto;orthogonalLoop=1;fontSize=11;endArrow=block;endFill=0;endSize=8;strokeWidth=1;shadow=0;labelBackgroundColor=none;edgeStyle=orthogonalEdgeStyle;entryX=0.5;entryY=0;entryDx=0;entryDy=0;" edge="1" parent="1" source="nx2Eyv0rDoXRoa020SPR-12" target="nx2Eyv0rDoXRoa020SPR-17">
          <mxGeometry x="-0.5" y="20" relative="1" as="geometry">
            <mxPoint as="offset" />
          </mxGeometry>
        </mxCell>
        <mxCell id="nx2Eyv0rDoXRoa020SPR-11" value="false" style="edgeStyle=orthogonalEdgeStyle;rounded=0;html=1;jettySize=auto;orthogonalLoop=1;fontSize=11;endArrow=block;endFill=0;endSize=8;strokeWidth=1;shadow=0;labelBackgroundColor=none;entryX=1;entryY=0.25;entryDx=0;entryDy=0;" edge="1" parent="1" source="nx2Eyv0rDoXRoa020SPR-12" target="nx2Eyv0rDoXRoa020SPR-13">
          <mxGeometry x="-0.0302" y="20" relative="1" as="geometry">
            <mxPoint as="offset" />
            <mxPoint x="530" y="810" as="targetPoint" />
            <Array as="points">
              <mxPoint x="460" y="470" />
              <mxPoint x="460" y="660" />
              <mxPoint x="400" y="660" />
            </Array>
          </mxGeometry>
        </mxCell>
        <mxCell id="nx2Eyv0rDoXRoa020SPR-12" value="method1(n3, n4) == VALUE2" style="rhombus;whiteSpace=wrap;html=1;shadow=0;fontFamily=Helvetica;fontSize=12;align=center;strokeWidth=1;spacing=6;spacingTop=-4;" vertex="1" parent="1">
          <mxGeometry x="220" y="430" width="220" height="80" as="geometry" />
        </mxCell>
        <mxCell id="nx2Eyv0rDoXRoa020SPR-13" value="End" style="rounded=1;whiteSpace=wrap;html=1;fontSize=12;glass=0;strokeWidth=1;shadow=0;" vertex="1" parent="1">
          <mxGeometry x="280" y="640" width="120" height="40" as="geometry" />
        </mxCell>
        <mxCell id="nx2Eyv0rDoXRoa020SPR-16" style="edgeStyle=orthogonalEdgeStyle;rounded=0;orthogonalLoop=1;jettySize=auto;html=1;entryX=0.5;entryY=0;entryDx=0;entryDy=0;" edge="1" parent="1" source="nx2Eyv0rDoXRoa020SPR-17" target="nx2Eyv0rDoXRoa020SPR-13">
          <mxGeometry relative="1" as="geometry" />
        </mxCell>
        <mxCell id="nx2Eyv0rDoXRoa020SPR-17" value="sum += n3 + n4" style="rounded=1;whiteSpace=wrap;html=1;fontSize=12;glass=0;strokeWidth=1;shadow=0;" vertex="1" parent="1">
          <mxGeometry x="280" y="550" width="120" height="40" as="geometry" />
        </mxCell>
        <mxCell id="nx2Eyv0rDoXRoa020SPR-18" value="method3(n1, n3) == method3(n2, n4)" style="rhombus;whiteSpace=wrap;html=1;shadow=0;fontFamily=Helvetica;fontSize=12;align=center;strokeWidth=1;spacing=6;spacingTop=-4;" vertex="1" parent="1">
          <mxGeometry x="510" y="220" width="250" height="80" as="geometry" />
        </mxCell>
        <mxCell id="nx2Eyv0rDoXRoa020SPR-20" value="true" style="rounded=0;html=1;jettySize=auto;orthogonalLoop=1;fontSize=11;endArrow=block;endFill=0;endSize=8;strokeWidth=1;shadow=0;labelBackgroundColor=none;edgeStyle=orthogonalEdgeStyle;entryX=0.5;entryY=0;entryDx=0;entryDy=0;exitX=0.5;exitY=1;exitDx=0;exitDy=0;" edge="1" parent="1" source="nx2Eyv0rDoXRoa020SPR-18" target="nx2Eyv0rDoXRoa020SPR-21">
          <mxGeometry x="0.1579" y="20" relative="1" as="geometry">
            <mxPoint as="offset" />
            <mxPoint x="350" y="290" as="sourcePoint" />
            <mxPoint x="350" y="380" as="targetPoint" />
            <Array as="points">
              <mxPoint x="680" y="300" />
            </Array>
          </mxGeometry>
        </mxCell>
        <mxCell id="nx2Eyv0rDoXRoa020SPR-21" value="sum += n1 + n4" style="rounded=1;whiteSpace=wrap;html=1;fontSize=12;glass=0;strokeWidth=1;shadow=0;" vertex="1" parent="1">
          <mxGeometry x="620" y="350" width="120" height="40" as="geometry" />
        </mxCell>
        <mxCell id="nx2Eyv0rDoXRoa020SPR-22" value="false" style="rounded=0;html=1;jettySize=auto;orthogonalLoop=1;fontSize=11;endArrow=block;endFill=0;endSize=8;strokeWidth=1;shadow=0;labelBackgroundColor=none;edgeStyle=orthogonalEdgeStyle;entryX=0;entryY=0;entryDx=0;entryDy=0;exitX=0;exitY=0.5;exitDx=0;exitDy=0;" edge="1" parent="1" source="nx2Eyv0rDoXRoa020SPR-18" target="nx2Eyv0rDoXRoa020SPR-25">
          <mxGeometry x="-0.2703" y="20" relative="1" as="geometry">
            <mxPoint as="offset" />
            <mxPoint x="540" y="400" as="sourcePoint" />
            <mxPoint x="540" y="455" as="targetPoint" />
            <Array as="points" />
          </mxGeometry>
        </mxCell>
        <mxCell id="nx2Eyv0rDoXRoa020SPR-23" value="" style="rounded=0;html=1;jettySize=auto;orthogonalLoop=1;fontSize=11;endArrow=block;endFill=0;endSize=8;strokeWidth=1;shadow=0;labelBackgroundColor=none;edgeStyle=orthogonalEdgeStyle;entryX=1;entryY=0.25;entryDx=0;entryDy=0;exitX=0.5;exitY=1;exitDx=0;exitDy=0;" edge="1" parent="1" source="nx2Eyv0rDoXRoa020SPR-21" target="nx2Eyv0rDoXRoa020SPR-25">
          <mxGeometry x="-0.8915" y="20" relative="1" as="geometry">
            <mxPoint as="offset" />
            <mxPoint x="490" y="360" as="sourcePoint" />
            <mxPoint x="392" y="577" as="targetPoint" />
            <Array as="points">
              <mxPoint x="680" y="400" />
            </Array>
          </mxGeometry>
        </mxCell>
        <mxCell id="nx2Eyv0rDoXRoa020SPR-25" value="sum += n1 + n2" style="rounded=1;whiteSpace=wrap;html=1;fontSize=12;glass=0;strokeWidth=1;shadow=0;" vertex="1" parent="1">
          <mxGeometry x="470" y="390" width="120" height="40" as="geometry" />
        </mxCell>
        <mxCell id="nx2Eyv0rDoXRoa020SPR-26" style="edgeStyle=orthogonalEdgeStyle;rounded=0;orthogonalLoop=1;jettySize=auto;html=1;entryX=0.777;entryY=0.248;entryDx=0;entryDy=0;exitX=0;exitY=0.5;exitDx=0;exitDy=0;entryPerimeter=0;" edge="1" parent="1" source="nx2Eyv0rDoXRoa020SPR-25" target="nx2Eyv0rDoXRoa020SPR-12">
          <mxGeometry relative="1" as="geometry">
            <mxPoint x="350" y="600" as="sourcePoint" />
            <mxPoint x="350" y="650" as="targetPoint" />
          </mxGeometry>
        </mxCell>
      </root>
    </mxGraphModel>
  </diagram>
</mxfile>
